<svg id="Capa_1" data-name="Capa 1" xmlns="http://www.w3.org/2000/svg" viewBox="0 0 175.47 192"><defs><style>.cls-1{fill:#3c3c3c;}</style></defs><path class="cls-1" d="M61,117.21c-1.71-8.83-3.24-18-5.33-27.14a150.58,150.58,0,0,1-3.62-39c.25-7.71.36-15.43.53-23.14,0-.75,0-1.49,0-2.8C37,29.78,22.75,24.72,8.26,19.54L14,8.87c2.75,1,5.45,1.68,8,2.78,5.73,2.47,11.7,2.52,17.71,2,3.73-.33,7.43-1,11.15-1.49,1.12-.14,1.59-.73,2.25-1.64A19.67,19.67,0,0,1,57.9,5.73a5.05,5.05,0,0,1,6.15.42c1.94,1.58,3.58,3.52,5.46,5.19a3.34,3.34,0,0,0,2.15.86c10-.54,18.43-4.56,25.65-11.31a2.29,2.29,0,0,1,3.31-.34c4.53,2.79,9.15,5.41,14,8.25-.65.36-1.13.67-1.64.92-11,5.42-22,10.89-33,16.21a3.18,3.18,0,0,0-2,3.87,31.26,31.26,0,0,0,1,4.18C82.34,45,85.92,56,89.39,67.09a2.18,2.18,0,0,0,2.21,1.85c3.41.21,6.81.52,10.19.8.11-.13.26-.22.27-.32.41-4.94,2.34-6.44,7.5-5.45a3,3,0,0,0,3.54-1.41c1-1.47,2.14-2.82,3.19-4.19-2.75-4.64-3.12-11.08,1.63-14.51s9.88-2.23,16.55,4.12l28.05-31.75c1.1,2.38,2.17,4.48,3,6.67.19.5-.36,1.49-.84,2Q151.68,38,138.61,51c-.91.92-1.88,1.78-3,2.87,1,.93,1.86,1.79,2.79,2.54,4.25,3.43,8.49,6.88,12.8,10.22a35.19,35.19,0,0,1,11.59,15.82c2.47,6.63,4.61,13.39,6.85,20.11a9.93,9.93,0,0,1,.2,2.23c1.4-.45,2.86-1,4.34-1.4a21.48,21.48,0,0,1,3.78-.84c4-.39,6.34,1.59,5.72,5.53-.84,5.31-2.23,10.53-3.39,15.78-.61,2.73-1.63,5.43-1.77,8.18-.19,3.91.25,7.85.43,11.78,0,1,.1,1.91.15,2.86a12,12,0,0,1-4.31,10.41,54.36,54.36,0,0,0-9.9,11.65c-5.2,8.29-12.71,13.12-21.57,16.34-11.07,4-22.61,5.43-34.25,6.58-18.2,1.81-34.68-3.21-50.43-11.7-4.13-2.23-8.24-4.53-12.48-6.56a81.3,81.3,0,0,0-9.66-3.85c-11.69-3.83-18.23-12.22-21.09-23.78a41.41,41.41,0,0,1-.69-18.88c2.42-11.16,10.07-17.23,20.49-20.39a53.79,53.79,0,0,1,5.8-1.22,12.43,12.43,0,0,1,10.82,3.15C55.05,111.26,58.07,114.4,61,117.21Zm-27.83,10c-5.21,1.84-7.24,4.18-7.87,9.47a19.42,19.42,0,0,0,2.6,12.6c4.55,7.47,16.18,10.69,22.77,6a32.65,32.65,0,0,0,12.5-17.76c2-6.65-.19-12.79-3.8-18.46A16.66,16.66,0,0,0,48,111.43c-7.23-1.39-10.73.57-14.47,7.3C32,121.39,32.26,124.37,33.15,127.22Zm76-15.72c-1.15-5-2.47-10.32-3.62-15.71-1-4.94-1.31-10.08-5.48-13.89-1.1-1-1.84-1.52-3.18-1.22-.93.21-1.87.38-2.79.65-3.19.92-3.52,1.38-2,4.33a24,24,0,0,1,2.08,17.79,105.11,105.11,0,0,0-2,12.92,11.83,11.83,0,0,0,.48,3.12l3.24-.77.19-.08Zm11.59-42.07C125.09,80.1,131,89.55,136.55,99.15,133.2,88.39,130.18,77.46,120.73,69.43Z" transform="translate(-8.26 0)"/><path class="cls-1" d="M51.3,145.15c.46-2.36.91-4.71,1.38-7.14-1.85.78-3.5,1.51-5.18,2.17a1.58,1.58,0,0,1-2.27-1.05c-1-2.59.31-8.35,2.56-10a2.13,2.13,0,0,1,2.06.14c1.41,1.44,2.6,3.07,3.87,4.61l1.93-7.3C59.21,130.9,57.43,141.37,51.3,145.15Z" transform="translate(-8.26 0)"/><path class="cls-1" d="M43.15,122.38c.67-.93,1.13-2.28,2-2.7a45.22,45.22,0,0,1,7.26-2.53c1.27-.34,1.64.51,1,1.55a79.09,79.09,0,0,1-4.68,6.63c-.68.81-2.27,1.73-3,1.44-1-.38-1.47-1.86-2.1-2.92a3.26,3.26,0,0,1-.13-1.2Z" transform="translate(-8.26 0)"/><path class="cls-1" d="M42.1,149.7c-2.32-1.16-5.15-5.74-5-7.43s2.61-3.78,4-3.36a2.51,2.51,0,0,1,1.52,1.8C42.61,143.59,42.32,146.48,42.1,149.7Z" transform="translate(-8.26 0)"/></svg>