<svg id="Capa_1" data-name="Capa 1" xmlns="http://www.w3.org/2000/svg" viewBox="0 0 171.37 192"><defs><style>.cls-1{fill:#00a99d;}</style></defs><path class="cls-1" d="M99.12,56.44c1.65-1.47,3.32-2.91,4.94-4.41,1.42-1.32,2.73-2.75,4.18-4,1-.85,2.11-1.73,3.54-1a4.31,4.31,0,0,1,2.3,3.77,8.5,8.5,0,0,1-2.2,6.14c-3.14,3.61-6.48,7-9.75,10.52a5.55,5.55,0,0,0-1.28,1.83,4.2,4.2,0,0,0,1.07-.27c1.74-.91,3.34-1,4.76.65a1.67,1.67,0,0,0,1.08.32c3.85.22,7.7.47,11.55.6A50.3,50.3,0,0,0,134,68.83c9.82-2.62,19.25-6.35,28.64-10.18a47.68,47.68,0,0,1,8.32-2.5,6.88,6.88,0,0,1,4.1.63,3.48,3.48,0,0,1,.69,5.77,37.42,37.42,0,0,1-7.52,4.62c-3.61,1.67-7.42,2.91-11.14,4.34-.2.08-.38.23-.49.67,1.55-.3,3.11-.58,4.65-.91,4.85-1,9.68-2.09,14.52-3.1,3.18-.67,4.64-.13,5.51,2,1,2.27.14,4.52-2.26,6.17-3.55,2.47-7.69,3.36-11.79,4.37-2.52.62-5.06,1.22-6.51,1.57,2.35,0,5.75,0,9.14,0a22.51,22.51,0,0,1,5.39.51c3.39.92,4.28,4.7,1.53,6.87a13.23,13.23,0,0,1-5.67,2.56c-4.86.85-9.79,1.32-14.7,1.82-3.33.34-6.69.46-10,1,2.48.14,5,.18,7.44.44,4.75.5,9.49,1,14.21,1.76a5.21,5.21,0,0,1,3.2,1.89c1.1,1.59.34,3.66-1.69,4.5a22,22,0,0,1-7.17,2c-6.4.28-12.82.09-19.28.46,2.64.79,5.32,1.47,7.91,2.41a46.45,46.45,0,0,1,6.83,3.07c1.93,1.08,2,2.65.45,4.21a10,10,0,0,1-7.63,2.89c-3.85-.15-7.69-.7-11.53-1.12a13.25,13.25,0,0,0-3.64-.16c1.59.68,3.19,1.3,4.74,2a47.35,47.35,0,0,1,4.84,2.54c2.24,1.39,2.16,2.78-.18,3.94a17.74,17.74,0,0,1-10.15,1.59l-5-.57c.3,1.12.49,2,.78,2.88.71,2.16,0,3.76-2.25,4.29a45.61,45.61,0,0,1-4.71.65c-1.11,5.56-4.52,6.75-10.64,3.62-1.84,4-5.38,3.13-8.61,2.8a47.1,47.1,0,0,1-6-1.42c.41,1.48.77,2.82,1.17,4.15,4,13.25,10.64,25.16,18.9,36.22,2,2.73,4,5.56,5.76,8.48,1.41,2.32.6,3.5-2.15,3.46a7.13,7.13,0,0,1-5.3-2.24,57,57,0,0,0-6.59-5.38,2.8,2.8,0,0,0-2.09-.49c-3.26.93-5.81-.42-7.83-2.64-3.13-3.45-6.09-7.08-9-10.75C82.11,158.91,72,148.38,59.82,140c-2.49-1.73-3.91-1.05-4.33,2a11.09,11.09,0,0,1-.32,1.34l-1.29-.41c-1,.61-1.94,1.55-2.28,1.36A4.62,4.62,0,0,1,49.43,142a3.78,3.78,0,0,1,1.18-4.2c1.16-1,1.06-2.05.22-3.16S49,132.15,48,131c-1.4-1.77-2.22-1.71-3.1.4-.58,1.38-1.14,2-2.13.93-1,.38-2.28,1.1-2.47.88a6,6,0,0,1-1.53-3,3.52,3.52,0,0,1,2.14-3.61c1.52-.73,1.67-1.75,1.16-3.22-1.28-3.71-2.67-7.39-3.64-11.18-1.35-5.29-.69-10.57.31-15.9a10.21,10.21,0,0,0-4.34-10.93A4.32,4.32,0,0,1,33.06,84c-1.76-3.07-4.8-3.53-7.83-3.67-4.14-.19-8.3-.06-12.45-.07A6.34,6.34,0,0,1,10.32,80l4.92-1c2.39-.5,4.78-1,7.18-1.49,4.29-.86,6.76-3.8,9-7.32a25.71,25.71,0,0,1,5.34-6.34c5-4.06,11.69-3.54,17.12,1a21.61,21.61,0,0,1,3.46,3.5A41.19,41.19,0,0,1,60,73a12.88,12.88,0,0,0,.28-2c-.22-6.11,2.19-11,6.2-15.56,11.12-12.67,20-26.71,25.1-43,.9-2.88,1.93-5.73,3-8.56a8.66,8.66,0,0,1,1.53-2.82,3.08,3.08,0,0,1,2.32-1A2.59,2.59,0,0,1,100,1.92a30.38,30.38,0,0,1,0,6.94,108.72,108.72,0,0,1-2.83,14c-1.37,4.62-3.48,9-5.28,13.52a18.22,18.22,0,0,0-1.26,3.8,12.85,12.85,0,0,0,1.24-1.74c2.21-4.5,4.45-9,6.53-13.56,1.57-3.47,2.76-7.12,4.43-10.54,1.36-2.78,4.6-3.11,6-.74a5.89,5.89,0,0,1,.62,3.57c-.64,4.75-2.73,9-4.91,13.22C101.82,35.59,99,40.68,96.25,45.8c-.28.53-.5,1.09-.75,1.64l.55.33c1.38-2,2.73-4.07,4.14-6.07q3.16-4.46,6.39-8.85a4.45,4.45,0,0,1,1.29-1.11c1.14-.7,2.49-1.13,3.43,0a4.37,4.37,0,0,1,.93,3,10.26,10.26,0,0,1-1.49,4.15c-3.07,4.72-6.31,9.34-9.48,14L99,56.28c-.1.13-.19.26-.29.38s-.21.48-.32.71l-.1.12.08-.14.38-.64Z" transform="translate(-10.32 0)"/></svg>