<svg id="Capa_1" data-name="Capa 1" xmlns="http://www.w3.org/2000/svg" viewBox="0 0 192 149.24"><defs><style>.cls-1{fill:#39b54a;}</style></defs><path class="cls-1" d="M88.4,149.32h22.45c2.7,0,5.41-.13,8.08.12,5.43.52,9,4.93,8.92,10.64-.1,5.53-3.69,9.66-9,10.21a46.07,46.07,0,0,1-4.85.1c-29,0-58-.56-86.93.21-17.49.47-29.06-9-26.84-28.89,5-44.9,28.18-76.07,70.33-92.8C78,46,85.84,44.54,93.72,43.52c2-.26,2.92-1.06,3.55-3.06,3.82-12.14,14.47-19.6,26.86-19,12.1.53,21.71,8.58,24.48,20.85a5,5,0,0,0,3.95,4.32c8.12,2.41,16.17,5,24.3,7.39,8.37,2.42,13.56,7.93,14.86,16.33,1.39,9-2.44,16-10.38,20.6-14.79,8.55-29.57,17.13-44.45,25.52-2.72,1.54-3.19,2.39-.77,4.75,8.79,8.55,17.42,17.27,26,26a6.7,6.7,0,0,0,5.34,2.2q7.08-.18,14.15,0c6.32.18,10.27,4.33,10.25,10.54s-4,10.27-10.39,10.4c-6.88.13-13.75,0-20.63.09a11.79,11.79,0,0,1-9-3.73q-17.07-17.22-34.18-34.42a3.93,3.93,0,0,1-1.08-4.26c3.52-15.39-3.22-30.52-17-38.56C86.64,81.9,70.5,83.82,58.85,94.52c-8.33,7.66-16.46,15.53-24.66,23.32-3.07,2.92-3.32,5.86-.81,8.47s5.39,2.51,8.52-.47C49.5,118.59,57,111.24,64.57,104c9-8.69,19.4-10.45,29.5-5a23.74,23.74,0,0,1,8.09,34.74c-3.24,4.53-7.6,8-11.34,12.06C90,146.6,88.92,147.26,88.4,149.32Zm34.54-93.57a7.79,7.79,0,0,0,7.9-8.27,8.4,8.4,0,0,0-8.07-7.94,8.21,8.21,0,0,0-8,8.29A7.66,7.66,0,0,0,122.94,55.75Z" transform="translate(0 -21.38)"/></svg>