<svg id="Capa_1" data-name="Capa 1" xmlns="http://www.w3.org/2000/svg" viewBox="0 0 190 192"><defs><style>.cls-1{fill:#183153;}</style></defs><path class="cls-1" d="M190.1,83.52a96.7,96.7,0,0,0-37.83-65.4A89,89,0,0,0,109.36.82a106.26,106.26,0,0,0-29.69.47c-19,3-35.43,11.44-49.43,25.06a95.23,95.23,0,0,0-23.09,36A100.81,100.81,0,0,0,1.4,88.71c-.37,4.49-.75,9,.2,13.46a26.4,26.4,0,0,0,7.56,14.21,25.77,25.77,0,0,0,18.34,7H67.81c-2.44,14.57-4.9,29.72-7.28,44a27.16,27.16,0,0,0,3.22,18.77,10.8,10.8,0,0,0,10,5.78c14.85,0,29.7-.16,44.55,0,9.85.13,15.38-12.63,13.23-25.22l-5.73-33.7c-.52-3-1-6.37-1.56-9.7l40.27,0a29.94,29.94,0,0,0,5.26-.42c12.29-2.18,20.38-11.69,21.13-24.39A84.2,84.2,0,0,0,190.1,83.52ZM50.81,93.88C38.2,93.88,28,83.2,28,70S38.2,46.14,50.81,46.14,73.65,56.83,73.65,70,63.43,93.88,50.81,93.88ZM91.89,44.11c-8.07,0-14.62-6.85-14.62-15.29s6.55-15.28,14.62-15.28,14.63,6.85,14.63,15.28S100,44.11,91.89,44.11Zm49,37.25c-9.31,0-16.85-7.88-16.85-17.61s7.54-17.61,16.85-17.61S157.77,54,157.77,63.75,150.22,81.36,140.92,81.36Z" transform="translate(-1)"/></svg>