<svg id="Capa_1" data-name="Capa 1" xmlns="http://www.w3.org/2000/svg" viewBox="0 0 129.65 192"><defs><style>.cls-1{fill:#9feb5a;}</style></defs><path class="cls-1" d="M88,160.57V143.65c-1.11.61-2.09,1.19-3.11,1.67a26.3,26.3,0,0,1-16.38,1.83,36.92,36.92,0,0,1-10.83-3.88c-4.6-2.48-7.59-6.47-10-11a49.42,49.42,0,0,1-4.6-12.54c-.08-.36-.13-.73-.2-1.17.92-.11,1.71-.29,2.51-.31,5.4-.16,10.79-.21,16.12.9,8.63,1.78,16.15,5.59,22,12.29,1.59,1.82,2.9,3.87,4.4,5.91V71.08c-1.65.36-3.28.78-4.93,1.06a29.9,29.9,0,0,1-13-.83A42.26,42.26,0,0,1,51.73,60.56c-3.88-3.74-6-8.55-7.41-13.67A60.65,60.65,0,0,1,42.23,28.7a7,7,0,0,1,.06-.8c0-.11.11-.2.34-.56,3.76.88,7.65,1.63,11.44,2.71,9.73,2.77,18.47,7.35,25.49,14.79A42.27,42.27,0,0,1,89.92,63.42c.06.22.12.45.2.67a5.49,5.49,0,0,0,.28.55c.26-1.6.45-3,.71-4.34a66.19,66.19,0,0,1,14.23-30.08,78.86,78.86,0,0,1,24-19.25A120.08,120.08,0,0,1,159.16.14c.28-.07.59-.08,1-.14.13,1.09.31,2.1.37,3.12a104.43,104.43,0,0,1-.86,24.09,55.46,55.46,0,0,1-7.11,20.14,44.86,44.86,0,0,1-8.18,9.37,65.48,65.48,0,0,1-20.78,13.14A47.24,47.24,0,0,1,102.26,73a69.24,69.24,0,0,1-8.66-1.85L93,71v43l.2.08c.57-1,1.13-1.93,1.72-2.89a50.09,50.09,0,0,1,25.47-21A69.14,69.14,0,0,1,139.18,86a107.15,107.15,0,0,1,17.09.11,5.56,5.56,0,0,1,.78.21c-.47,1.9-.86,3.78-1.41,5.61-2.24,7.55-5.31,14.71-10.21,21a31.56,31.56,0,0,1-12.2,9.47,51.59,51.59,0,0,1-14.34,4.3c-9,1.17-17.44-.15-25.06-5.35a3.5,3.5,0,0,0-.49-.29c-.06,0-.15,0-.36,0,0,.38-.06.78-.06,1.18,0,12.32,0,24.63,0,36.94,0,1.11.31,1.42,1.43,1.45a74.06,74.06,0,0,1,27,6,76.6,76.6,0,0,1,19.67,12,54.71,54.71,0,0,1,11.26,12.5,10,10,0,0,1,.47.9H31.17c.35-.64.6-1.17.92-1.65a57.92,57.92,0,0,1,11.72-12.54A78.31,78.31,0,0,1,66.72,165,71.87,71.87,0,0,1,86,160.85C86.6,160.8,87.25,160.67,88,160.57Z" transform="translate(-31.17)"/></svg>