<svg id="Capa_1" data-name="Capa 1" xmlns="http://www.w3.org/2000/svg" viewBox="0 0 192 192"><path d="M101.05,33.32c5.2.07,13.07,2.24,16.6,6.06a34.51,34.51,0,0,1,5,7,29.35,29.35,0,0,1,3.32,14c0,1.49,0,3,0,4.78a12,12,0,0,0,1.93-1.92,76.35,76.35,0,0,1,14.29-14.33c2.63-2,3.26-3.76,2.23-6.4-3.8-9.74-7.48-19.53-11.17-29.31a11,11,0,0,1-.4-7.68A8.63,8.63,0,0,1,141.26.06c4.22.06,6.78,2.37,8.22,6,4.08,10.31,8.22,20.61,12,31,3.14,8.73,1.26,16.63-5.27,23.28s-12.94,13-19.43,19.46a5.37,5.37,0,0,1-1.29.72l.29.68c3-1,6.09-2,9.13-3,6.59-2.22,13.17-4.49,19.78-6.67a4.28,4.28,0,0,0,3-3q3.23-9.89,6.58-19.73a9.32,9.32,0,0,1,5.1-6,8.78,8.78,0,0,1,9.18,1,8.24,8.24,0,0,1,3.39,8,32.84,32.84,0,0,1-1.45,5.74c-1.76,5.34-3.63,10.63-5.42,15.95a23.08,23.08,0,0,1-15.37,15.42c-6.48,2.14-12.95,4.32-19.42,6.49-.44.15-.88.32-1.7.62.82.31,1.29.5,1.76.66,6.65,2.23,13.3,4.44,19.95,6.68a21.63,21.63,0,0,1,12.23,9.49A28.46,28.46,0,0,1,184.8,118q3.34,9.6,6.52,19.27a10,10,0,0,1-.45,8.31c-2.84,5.1-10,6-13.66,2.2a14.73,14.73,0,0,1-3.16-5.08c-2.29-6.36-4.35-12.8-6.45-19.23a4,4,0,0,0-2.72-2.9c-9.45-3.15-18.88-6.36-28.32-9.54a11.42,11.42,0,0,0-1.14-.26c.63.65,1,1,1.32,1.36q9.19,9.23,18.4,18.43a25.35,25.35,0,0,1,6.91,10.76,21.21,21.21,0,0,1-.62,13.7c-3.85,10.3-7.85,20.53-11.89,30.75-2.26,5.69-6.25,7.29-11.63,5.65-3.83-1.16-6.51-4.65-5.31-9.71a104.46,104.46,0,0,1,4.23-12.34c2.57-6.9,5.22-13.77,7.85-20.65a3.38,3.38,0,0,0-.66-3.89L132.5,133.27a2.87,2.87,0,0,0-.57-.28c-.76,11.44-5.23,20.93-14.33,27.95a34,34,0,0,1-21.66,7.14,35.07,35.07,0,0,1-25-10.41c-6.88-6.76-10.35-15-10.92-24.87a17.27,17.27,0,0,0-1.51,1.44,108.29,108.29,0,0,1-9.72,9.68c-1.71,1.55-2.21,3.07-1.4,5.19q5.72,14.77,11.28,29.6c1.42,3.82,1.61,7.58-1.58,10.81C53.74,193,46.21,193,43.73,188c-2.09-4.24-3.74-8.7-5.49-13.1-2.43-6.12-4.76-12.27-7.14-18.41-2.15-5.56-2.76-11.18-.61-16.88a23.12,23.12,0,0,1,5.35-8.06q9.63-9.7,19.31-19.37a3.35,3.35,0,0,0,.93-1.41l-4.73,1.57c-7.74,2.61-15.46,5.29-23.22,7.81a5.59,5.59,0,0,0-4,4c-2,6.34-4.13,12.62-6.27,18.91a9.6,9.6,0,0,1-4.91,6c-6.2,2.9-13.34-1.54-12.77-8.43a31.51,31.51,0,0,1,1.78-7.14c1.65-5.12,3.46-10.19,5.17-15.29a23.11,23.11,0,0,1,15.36-15.24l19.93-6.67c.22-.08.44-.18.66-.27v-.31c-4.75-1.59-9.52-3.16-14.27-4.78C25.65,90,22.52,89,19.48,87.71c-6.11-2.49-10-7.09-12.13-13.29C5.1,67.82,2.83,61.22.64,54.6-1,49.63.55,45.4,4.78,43c3.84-2.21,9.41-.87,11.57,3a44.9,44.9,0,0,1,2.83,7C21,58.17,22.7,63.42,24.42,68.67a4,4,0,0,0,2.67,2.77c9.37,3.13,18.71,6.31,28.06,9.47.34.11.7.15,1,.24l.24-.62a4.76,4.76,0,0,1-1.27-.72Q46.24,70.93,37.35,62C34.1,58.75,31.28,55.24,30,50.7a17.72,17.72,0,0,1-.28-10.19C31.32,35.2,33.31,30,35.26,24.78c2.19-5.86,4.42-11.7,6.81-17.47a20.2,20.2,0,0,1,3.25-5.22C47.56-.54,52.47-.37,54.79.86c3.8,2,5.69,5.39,4.68,9.06-1.21,4.42-2.85,8.73-4.44,13C52.54,29.73,50,36.47,47.37,43.2a3.51,3.51,0,0,0,.74,4.12l17.17,17.2a6.16,6.16,0,0,0,.79.55c0-1.58,0-2.92,0-4.26a29.15,29.15,0,0,1,9.54-22.6l.06-.06c3.54-3.32,11.18-5.08,16-5Z" transform="translate(0 0)"/></svg>